<?xml version="1.0" encoding="utf-8"?>
<!-- Generator: Adobe Illustrator 27.5.0, SVG Export Plug-In . SVG Version: 6.00 Build 0)  -->
<svg version="1.1" xmlns="http://www.w3.org/2000/svg" xmlns:xlink="http://www.w3.org/1999/xlink" x="0px" y="0px"
	 viewBox="0 0 500 500" style="enable-background:new 0 0 500 500;" xml:space="preserve">
<g id="BACKGROUND">
	<rect x="0" y="0" style="fill:#E2DFD6;" width="499.999" height="500.001"/>
</g>
<g id="OBJECTS">
	<path style="fill:#FFFFFF;" d="M323.433,275.159c1.401-2.499,1.797-5.46,1.531-8.306c-0.605-6.472-4.716-12.534-11.958-14.905
		c3.782,4.564,2.445,12.298-2.654,15.351c-2.425,1.452-5.368,1.889-7.801,3.328c-4.676,2.764-6.46,9.388-3.793,14.086
		c0.636,1.12,1.513,2.243,1.408,3.52c-0.068,0.825-0.546,1.558-1.062,2.21c-2.091,2.64-5.233,4.627-8.637,4.709
		c-3.404,0.082-6.927-2.085-7.76-5.337c-0.833-3.252,1.75-7.094,4.297-7.395c5.466-3.469,7.896-10.926,5.505-16.894
		c-1.305-3.257-3.86-6.099-4.216-9.58c-0.447-4.382,2.708-8.266,5.923-11.317c3.216-3.051,6.873-6.12,7.92-10.397
		c0.848-3.465-0.242-7.199-2.288-10.148c-2.046-2.949-4.968-5.205-8.022-7.132c4.286,3.369,5.488,9.819,3.279,14.689
		c-2.209,4.87-7.197,8.139-12.476,9.35c-0.513,0.118-1.085,0.254-1.371,0.69c-0.335,0.513-0.119,1.186,0.083,1.763
		c0.707,2.018,1.135,4.191,0.736,6.286c-0.494,2.589-2.309,4.897-4.732,6.014c-1.431,0.66-3.187,0.893-4.564,0.123
		c-1.51-0.845-2.187-2.707-2.088-4.412c0.098-1.705,0.83-3.303,1.549-4.855c-1.857-4.273-4.153-7.326-4.133-10.808
		c0.036-6.079,6.81-9.928,8.899-15.643c1.435-3.926,0.495-8.294-0.809-12.271c-2.084-6.354-5.819-13.075-12.351-14.874
		c-4.368-1.202-9.471-0.012-13.212-2.541c-2.493-1.685-3.772-4.794-3.631-7.763c0.141-2.969,1.56-5.777,3.527-8.028
		c1.439-1.648,3.182-3.051,4.39-4.87c2.853-4.298,1.984-10.472-1.601-14.22c-3.584-3.749-9.415-5.038-14.444-3.664
		c2.5,2.191,1.069,6.485-1.579,8.487c-2.648,2.001-6.089,2.695-8.92,4.438c-3.827,2.357-6.189,6.385-9.179,9.714
		c-0.394,0.438-0.875,0.899-1.47,0.891c-0.488-0.007-0.902-0.564-0.778-0.962c-5.342,7.416-3.081,17.892,1.196,26.018
		c1.329,2.526,3.025,5.136,5.728,6.141c3.319,1.235,7.735-0.098,10.087,2.52c1.314,1.463,1.375,3.615,1.264,5.561
		c-0.892,15.569-8.64,30.623-20.857,40.521c2.654,2.55,4.317,5.79,4.522,9.24c0.205,3.45-1.251,7.104-4.195,8.978
		c-2.944,1.874-7.363,1.473-9.49-1.282c-2.075-2.688-1.233-7.069,1.695-8.812c3.012-4.58,3.846-9.778,2.039-14.006
		c-1.807-4.228-6.169-7.285-10.816-7.58c0.817,6.528-2.934,12.782-7.426,17.636c-4.492,4.854-9.889,8.948-13.606,14.401
		c-6.398,9.386-6.937,21.762-3.87,32.678c2.135,7.598,5.984,14.859,11.826,20.259c5.842,5.4,13.79,8.795,22.114,9.562
		c6.663,5.472,14.445,9.506,22.527,12.606c7.69,2.95,15.809,5.103,24.055,5.107c8.246,0.004,16.664-2.283,23.032-7.423
		c4.715-3.806,8.089-8.945,10.989-13.177c8.706,1.284,17.857-2.411,23.544-9.006c5.687-6.595,7.921-15.803,6.423-24.343
		c-0.945-5.389-3.239-11.096-0.976-16.082C318.286,280.642,321.624,278.388,323.433,275.159z"/>
	<g>
		<path style="fill:#EFECE6;" d="M89.873,285.235c-0.968,0.425-1.936,0.85-2.905,1.275c5.028,4.843,7.767,12.334,7.236,19.79
			c12.433,4.863,24.984,14.083,26.912,28.363c4.855-3.224,11.169-2.424,15.903,0.543c4.735,2.967,8.189,7.763,11.337,12.596
			c-4.787-18.724-5.787-32.03-2.811-44.45c-5.037-6.307-9.837-13.011-12.682-20.82c-2.846-7.81-3.567-16.925-0.455-24.913
			c1.603-4.115,4.202-7.96,4.585-12.351c0.25-2.861-0.478-5.656-0.691-8.497c-0.807-10.73,5.617-20.738,11.935-29.421
			c6.318-8.683,13.194-18.085,13.547-28.902c-7.555,9.837-18.09,16.984-29.429,19.964c-1.665,0.438-3.42,0.825-4.774,2
			c-1.612,1.398-2.344,3.633-2.946,5.75c-2.16,7.602-3.694,15.384-4.579,23.22c-0.202,1.792-0.413,3.7-1.469,5.136
			c-2.556,3.474-7.805,1.537-10.212-1.817c-3.306-4.605-4.037-11.285-1.844-16.864c1.251-3.184,3.347-5.955,4.525-9.168
			c1.178-3.213,1.159-7.339-1.291-9.35c3.633-8.727,3.83-18.692-0.659-26.023c-4.49-7.331-14.417-10.762-21.617-5.936
			c7.116,4.795,9.952,14.902,8.822,24.14c-1.131,9.238-5.572,17.76-10.484,25.591c-3.093,4.931-6.466,9.825-8.079,15.47
			c-1.902,6.657-1.172,13.694-0.406,20.484C78.766,263.65,80.847,277.457,89.873,285.235z"/>
		<path style="fill:#EFECE6;" d="M369.346,146.679c-5.158-3.536-8.095-10.9-14.119-14.718c-1.583-1.003-3.787-1.851-5.179-0.541
			c-0.549,0.516-0.824,1.269-0.992,2.01c-0.781,3.434,0.486,7.241,3.135,9.423c-7.322-2.072-13.402-8.122-15.648-15.571
			c-0.722-2.395-1.075-4.922-2.069-7.207c-1.732-3.984-5.461-6.959-9.659-7.706c-2.363-0.421-4.799-0.173-7.19-0.395
			c-3.379-0.313-6.654-1.585-9.37-3.639c-1.205-0.911-2.331-2.017-2.906-3.439c-0.574-1.422-0.491-3.214,0.521-4.378
			c1.454-1.674,4.026-1.433,6.118-0.883c-7.648-7.392-21.555-2.16-29.837-8.796c-0.027,0.03-0.056,0.058-0.083,0.089
			c-1.802-1.702-4.058-2.894-6.378-3.768c-4.855-1.829-10.151-2.454-15.32-1.807c-1.002,0.125-2.036,0.29-3.07,0.421
			c-1.088,0.053-2.177,0.123-3.267,0.212c-1.601-0.043-3.123-0.378-4.441-1.311c-0.51-0.361-0.988-0.84-1.125-1.463
			c-0.239-1.085,0.665-2.148,1.678-2.567c1.013-0.419,2.134-0.405,3.204-0.62c2.782-0.562,5.192-2.835,5.978-5.637
			c0.786-2.802-0.091-5.999-2.174-7.93c-3.914,5.503-10.115,9.242-16.665,10.046c-4.789,0.588-9.988-0.235-14.149,2.321
			c-4.108,2.524-5.911,7.544-8.265,11.825c-4.358,7.927-11.258,14.011-18.014,19.917c1.589,0.043,3.178-0.01,4.745-0.161
			c-3.667,2.207-7.497,4.112-11.35,5.868c-1.7,0.775-3.491,1.54-5.292,1.381c-1.802-0.159-3.594-1.55-3.667-3.51
			c-0.08-2.125,1.83-3.874,3.746-4.463c1.916-0.589,3.93-0.406,5.881-0.797c4.201-0.842,7.738-4.31,9.958-8.33
			c2.22-4.02,3.326-8.586,4.404-13.078c-4.774,6.865-13.899,6.888-21.66,7.592c-9.701,0.88-20.639,5.127-24.452,14.976
			c-1.402,3.622-1.648,7.578-2.553,11.359c-0.906,3.781-2.757,7.706-6.052,9.355c-2.336,11.057-9.527,20.171-18.622,24.759
			c-3.144,1.586-6.798,2.941-8.433,6.261c-1.478,3.002-0.758,6.543-0.557,9.863c0.509,8.392-2.568,16.677-5.586,24.605
			c4.274-4.626,9.981-7.664,15.871-8.45c2.477-0.331,5.027-0.287,7.385-1.251c2.927-1.196,5.193-3.786,7.339-6.287
			c2.051-2.39,4.103-4.78,6.154-7.17c0.986-1.149,2.008-2.326,3.307-2.999c1.224-0.634,2.591-0.767,3.921-0.924
			c13.205-1.554,26.203-6.479,37.633-14.26c-3.859,1.625-8.133,1.93-12.041,0.858c-0.622-0.171-1.309-0.447-1.53-1.097
			c-0.206-0.608,0.082-1.296,0.386-1.881c3.1-5.965,8.669-10.437,14.782-11.869c2.402-0.563,4.862-0.678,7.258-1.281
			c5.084-1.28,9.545-4.651,14.261-7.184c11.616-6.239,25.927-7.168,37.542-0.115c3.543,3.132,9.528,2.408,12.639-1.531
			c-2.057,1.924-5.227,1.347-7.394-0.21s-3.747-3.894-5.809-5.605c-2.724-2.259-6.179-3.328-9.646-3.751
			c-1.548-0.189-3.142-0.265-4.571-0.889c-1.43-0.624-2.7-1.943-2.811-3.629c-0.125-1.885,1.277-3.676,2.934-4.376
			c1.657-0.7,3.487-0.514,5.172-0.073c3.157,0.826,6.083,2.521,8.434,4.887c2.537,2.552,4.466,5.906,7.533,7.676
			c2.803,1.618,6.166,1.687,9.35,2.175c1,0.153,2.016,0.385,2.995,0.706c3.438,2.318,6.117,5.818,7.048,9.935
			c0.15,0.664,0.27,1.363,0.66,1.911c0.312,0.439,0.768,0.74,1.203,1.05c3.93,2.801,6.752,6.974,10.578,9.921
			c8.951,6.894,21.68,5.981,31.536,11.442c5.909,3.273,10.55,8.848,12.971,14.842c3.498,2.399,7.142,4.577,10.904,6.518
			c-0.174-1.421-0.348-2.841-0.523-4.262c-0.07-0.568-0.128-1.19,0.173-1.678c0.302-0.488,0.88-0.703,1.42-0.859
			c3.988-1.152,8.331-0.885,12.115,0.746c2.319,0.999,4.649,2.891,4.706,5.488c11.459-0.904,22.812,7.538,25.5,18.96
			c2.092-8.096-2.92-16.438-9.415-21.345c-2.81-2.123-6.017-3.926-7.879-6.958c-2.041-3.324-2.096-7.509-2.963-11.351
			C378.288,155.834,374.515,150.223,369.346,146.679z"/>
		<path style="fill:#EFECE6;" d="M329.406,410.608c0.984-0.566,1.939-1.188,2.835-1.894
			C331.216,409.223,330.284,409.875,329.406,410.608z"/>
		<path style="fill:#EFECE6;" d="M314.562,413.096c-0.85-0.59-1.321-1.591-1.789-2.53c-1.554-3.117-3.938-6.328-7.352-6.613
			c-1.937-0.162-3.826,0.672-5.588,1.548c-6.87,3.414-13.744,7.861-21.327,7.767c-3.385-0.042-7.415-1.851-7.508-5.328
			c-0.07-2.641,2.28-4.764,4.7-5.698c2.421-0.934,5.07-1.106,7.454-2.136c6.805-2.94,9.214-11.584,9.704-19.117
			c-7.237,6.479-17.336,7.151-23.181,9.379c-15.771,6.012-33.407-0.365-47.26-9.795c-4.04-2.75-8.895-5.896-13.42-3.945
			c2.499,1.673,4.742,3.743,6.626,6.117c0.434,0.548,0.869,1.163,0.884,1.874c0.042,1.969-2.691,2.455-4.574,2.11
			c-6.966-1.276-13.974-4.69-17.475-10.975c-1.649-2.961-2.456-6.435-4.544-9.084c-2.612-3.313-6.77-4.796-10.392-6.885
			c-7.122-4.109-12.597-11.089-15.003-19.128c-0.842-2.814-1.335-5.78-2.688-8.369c-3.013-5.766-9.512-8.427-15.51-10.658
			c4.136,5.369,8.424,11.099,9.268,17.93c0.566,4.578-0.482,9.313,0.406,13.832c0.934,4.753,3.831,8.596,7.316,11.953
			c-5.962-2.497-14.028-2.601-18.267-7.709c-1.515-1.826-2.372-4.131-3.707-6.101c-1.393-2.055-3.275-3.701-5.208-5.225
			c-3.808-3.002-8.029-5.678-12.774-6.56c-4.745-0.882-10.114,0.325-14.772,4.665c-3.253,2.378-7.793,2.131-11.309,0.308
			c-3.516-1.823-6.183-4.974-8.514-8.229c0.331,8.557,3.283,18.208,11.003,21.331c8.275,3.348,19.269-2.032,25.929,3.991
			c5.006,4.528,4.303,12.853,7.733,18.737c6.801,11.667,25.682,8.732,34.118,19.197c2.686,3.332,3.936,7.63,6.065,11.366
			c4.907,8.614,14.861,13.856,24.617,12.963c-3.953-2.261-8.015-5.922-7.612-10.589c0.419-4.854,5.964-8.022,10.609-7.14
			c4.645,0.881,8.242,4.683,10.636,8.845c1.36,2.363,2.447,4.912,4.106,7.062c3.876,5.024,10.343,7.185,16.587,7.847
			c6.244,0.663,12.592,0.088,19.387-0.315c7.299,4.477,16.735,2.755,24.836-0.214c8.101-2.969,16.118-7.103,24.677-7.102
			c5.328,0.001,10.906,1.583,15.828-0.594c5.022-2.222,7.911-7.749,12.129-11.268c-3.657,2.104-7.836,3.233-11.999,3.167
			C316.416,413.759,315.377,413.662,314.562,413.096z"/>
		<path style="fill:#EFECE6;" d="M414.032,249.982c0.43-4.203,1.556-8.361,1.433-12.576c-0.219-7.525-4.337-14.203-8.32-20.463
			c0.877,2.052-1.466,4.359-3.657,4.276c-2.191-0.083-4.009-1.638-5.643-3.116c-2.507-2.266-5.085-4.628-6.462-7.761
			c-0.827-1.882-1.175-3.946-1.578-5.975c-0.585-2.947-1.34-5.95-3.086-8.348c-1.747-2.397-4.711-4.071-7.592-3.443
			c-2.049,0.447-3.962,1.991-6.012,1.614c-2.756-0.507-3.709-3.911-5.092-6.398c-1.382-2.488-5.628-3.963-6.514-1.213
			c-0.209,0.648-0.121,1.348-0.03,2.019c0.478,3.553,0.956,7.106,2.66,11.425c-1.599,5.705-3.198,11.41-4.798,17.115
			c-1.027,3.665-1.904,8.079,0.582,10.851c1.64-3.14,4.509-6.828,7.744-5.658c0.869,0.314,1.581,0.958,2.224,1.634
			c4.445,4.672,6.491,11.637,5.326,18.13c-0.557,3.105-1.799,6.104-1.905,9.253c-0.087,2.579,0.596,5.101,0.888,7.658
			c0.676,5.923-0.831,12.117-4.155,17.073c-0.646,0.964-1.391,1.91-2.402,2.449c-0.945,0.504-2.054,0.612-2.977,1.157
			c-0.923,0.545-1.599,1.864-1.863,2.983c0.517,1.508,2.539,1.482,4.094,1.619c5.423,0.479,9.118,6.355,9.186,11.953
			c0.068,5.598-2.563,10.87-5.339,15.734c-4.969,8.707-10.629,17.006-16.903,24.785c-4.032-0.951-6.416-6.195-4.565-10.042
			c0.531-1.105,1.364-2.19,1.225-3.404c-0.139-1.214-2.131-1.873-2.435-0.684c-3.358,3.235-6.292,6.935-8.695,10.965
			c-1.875,3.145-3.46,6.62-3.554,10.284c-0.068,2.63,0.638,5.215,0.632,7.845c-0.02,9.567-8.914,16.445-17.081,21.173
			c-8.167,4.728-17.262,10.205-19.75,19.254c-0.444,1.614,1.511,2.984,3.111,2.662c1.6-0.322,2.814-1.633,4.01-2.784
			c1.196-1.151,2.691-2.268,4.299-2.047c2.163,0.298,3.28,2.815,3.529,5.043c0.249,2.228,0.062,4.642,1.213,6.534
			c1.477,2.428,4.596,3.1,7.393,3.292c7.266,0.499,14.669-0.797,21.413-3.749c-1.799-5.419,1.101-11.38,4.703-15.842
			c3.602-4.462,8.073-8.378,10.308-13.688c3.673-8.727,1.109-20.547,8.313-26.544c0.755-0.629,1.636-1.171,2.6-1.231
			c3.189-0.199,4.228,4.248,4.172,7.527c-0.342,5.18-2.837,8.617-4.689,12.159c-1.852,3.542-3.047,8.112-0.81,11.344
			c2.687,3.883,9.044,3.907,11.126,8.17c-2.673-5.65,0.046-12.609,4.04-17.479c3.994-4.871,9.219-8.626,12.825-13.804
			c3.915-5.62,5.629-12.477,7.265-19.154c1.325-5.411,2.348-11.994-1.587-15.747c-0.996-0.95-2.262-1.642-2.987-2.824
			c-0.851-1.386-0.788-3.158-0.655-4.806c0.593-7.357,2.012-14.657,4.22-21.707c0.789-2.519,2.638-5.573,5.101-4.88
			c1.259,0.354,2.035,1.611,2.628,2.803c3.583,7.206,4.758,15.677,3.286,23.702c5.424-8.478,5.027-19.441,3.263-29.322
			C415.944,269.898,413.004,260.016,414.032,249.982z"/>
		<path style="fill:#EFECE6;" d="M227.705,175.405c0.055-0.076,0.099-0.158,0.155-0.233
			C227.776,175.236,227.732,175.318,227.705,175.405z"/>
		<path style="fill:#EFECE6;" d="M117.698,133.297c1.496-3.464,2.262-6.822,3.287-10.198c-3.349,3.83-7.391,7.111-10.224,11.372
			c-4.616,6.718-5.389,15.776-1.344,22.948c2.369,4.167,4.898,7.399,4.614,11.989c1.647-2.397,2.219-5.428,2.011-8.298
			c-0.244-3.446-1.33-6.778-1.54-10.234c-0.089-3.285,0.075-6.596,0.705-9.825C115.833,138.405,116.63,135.799,117.698,133.297z"/>
		<path style="fill:#EFECE6;" d="M121.927,148.997c0.123,1.722,0.358,0.145,0.736-0.607c1.851-4.646,2.658-9.658,5.244-13.299
			c-2.689,1.105-4.948,3.409-5.72,6.243C121.519,143.831,121.55,146.455,121.927,148.997z"/>
		<path style="fill:#EFECE6;" d="M99.266,324.259c1.258,0.768,2.579,1.536,3.445,2.669c0.694,1.053,1.023,2.524,0.637,3.808
			c4.215-4.518-0.907-10.114-4.716-12.889c-4.072-2.96-7.21-3.632-10.586-5.833c-2.318-1.314-4.474-2.885-6.531-4.575
			c-1.289-1.282,0.115,0.845,0.338,1.52c2.471,5.845,9.024,11.242,12.501,12.657C96.587,322.831,95.447,322.146,99.266,324.259z"/>
		<path style="fill:#EFECE6;" d="M84.022,299.662c0.433,0.474,0.575,0.749,0.332-0.084c-1.023-4.072-3.985-7.21-6.713-10.25
			C78.521,293.448,81.196,296.685,84.022,299.662z"/>
		<path style="fill:#EFECE6;" d="M422.937,235.663c-3.612,9.565-7.776,17.547-3.957,27.884c0.724,2.924,2.228,5.887,1.569,8.951
			c1.65-1.668,2.211-3.98,2.493-6.238c0.51-3.792,0.202-7.633,0.354-11.447C423.475,248.418,424.136,242.005,422.937,235.663z"/>
		<path style="fill:#EFECE6;" d="M343.417,104.033c-0.8-1.255-3.182-5.972-4.4-8.568c-0.923-1.928-1.799-3.878-2.612-5.854
			c-0.057,0.791-0.103,1.586-0.117,2.379c0.022,5.703,0.171,11.685,2.496,16.983c2.994,6.107,8.729,10.624,15.113,12.791
			c4.367,1.525,8.998,2.606,12.284,5.414c-1.764-5.517-6.919-8.966-11.342-12.287C349.43,110.394,347.07,108.987,343.417,104.033z"
			/>
		<path style="fill:#EFECE6;" d="M224.305,70.189c4.352-2.631,10.062-1.674,15.157-3.217c6.23-1.657,11.577-5.772,15.594-10.726
			c0.605-0.731,1.184-1.485,1.733-2.256c-0.254,0.125-0.509,0.248-0.764,0.37c-5.94,2.655-12.023,4.969-18.062,7.382
			C233.164,63.98,227.233,65.405,224.305,70.189z"/>
		<path style="fill:#EFECE6;" d="M226.595,439.665c0.584,0.134,1.173,0.253,1.759,0.372c-1.309-1.059-2.552-2.196-3.813-3.311
			c-2.13-1.935-2.532-2.302-4.321-3.938c0.043,0.037-0.374-0.354-0.739-0.691c0.004,0.003,0.013,0.012,0.016,0.014
			c-1.9-1.77-3.707-3.632-5.488-5.521c-2.134-2.343-4.255-4.725-6.814-6.618c-1.516-1.169-3.297-2.223-5.277-2.117
			c2.929,1.69,3.84,5.618,5.688,8.414C211.265,433.598,218.769,438.021,226.595,439.665z"/>
		<path style="fill:#EFECE6;" d="M211.211,438.609c-2.309-0.666-3.93-1.438-5.862-2.631c1.824,4.435,5.837,6.466,10.328,7.343
			c6.084,1.289,12.379,1.132,18.566,1.021c-6.973-1.9-13.511-3.8-19.708-4.988C213.716,439.176,213.359,439.179,211.211,438.609z"/>
		<path style="fill:#EFECE6;" d="M354.291,318.603c1.822-0.174,3.241-1.53,4.387-2.85c2.416-2.67,3.776-6.427,3.072-10.015
			c-0.587-3.514-3.274-7.496-4.944-9.774c-0.35-0.49-1.872-3.035-2.878-4.731c-0.645-1.265-0.313-0.036-0.348,0.669
			c0.102,3.038,0.591,6.063,1.594,8.937c0.554,1.808,1.621,4.89,2.037,8.166c0.017,0.625-0.17,3.799-0.498,4.389
			C356.143,315.406,355.833,317.267,354.291,318.603z"/>
	</g>
	<path style="fill:#373F4C;" d="M417.779,194.885c-2.813,4.749-6.63,8.188-10.798,10.872c-1.457,0.904-2.822,1.669-4.149,2.333
		c1.189-0.802,2.148-1.604,3.55-2.637c1.485-1.189,4.048-3.181,5.099-5.311c-1.743,2.278-4.408,3.605-6.962,4.859
		c-2.398,1.097-4.131,1.162-6.805,1.761c-4.62,0.839-9.092,2.314-13.694,3.246c-0.055,0.009-0.12,0.018-0.184,0.028
		c2.314-0.756,4.611-1.549,6.86-2.462c2.158-1.079,4.629-1.973,6.399-3.642c-0.157,0.157-0.304,0.304-0.452,0.452
		c2.231-1.531,4.085-3.209,6.51-5.597c2.96-2.868,5.56-6.298,9.23-8.271c-4.97,1.982-8.926,5.837-13.675,8.281
		c-1.18,0.618-1.9,0.931-2.619,1.18c3.227-2.314,6.261-4.924,9.323-7.451c2.849-2.176,6.381-5.044,9.949-7.441
		c-4.611,2.231-9.258,4.38-13.841,6.667c0.766-0.599,1.494-1.199,2.232-1.77c2.25-1.715,4.85-2.886,7.248-4.352
		c-1.872,0.747-4.085,1.549-5.8,2.268c-2.683,1.171-5.201,2.517-7.294,3.375c-1.715,0.738-3.486,1.272-5.284,1.715
		c0.682-0.387,1.374-0.756,2.075-1.106c1.346-0.738,2.84-1.346,3.864-2.517c-2.517,1.78-5.819,1.807-8.603,3.043
		c-0.313,0.129-0.618,0.277-0.922,0.406c5.016-4.73,9.027-10.558,11.757-16.865c-1.78,2.877-3.863,5.597-6.123,8.096
		c1.31-1.936,2.545-3.928,3.726-5.938c3.716-6.206,9.064-10.872,13.389-18.783c1.171-2.407,1.955-4.251,2.849-7.054
		c0.793-2.259,1.226-4.675,2.314-6.805c-1.614,2.278-2.6,4.952-4.232,7.229c-1.826,2.692-3.006,3.983-5.745,6.704
		c-0.553,0.526-1.125,1.042-1.688,1.558c0.037-0.055,0.074-0.111,0.11-0.166c2.075-2.831,3.827-4.666,6.013-8.161
		c3.246-5.514,5.247-11.656,5.892-18.027c-1.789,5.846-6.602,14.044-9.461,17.787c-1.208,1.549-2.453,3.034-3.836,4.5
		c0.516-0.885,1.033-1.835,1.567-2.868c1.291-2.351,2.554-4.749,3.264-7.349c0.212-0.857,0.489-1.78,0.24-2.656
		c0.12,0.692-0.23,1.521-0.461,2.084c-0.563,1.291-1.291,2.508-2.121,3.642c-0.922,1.273-2.554,3.32-4.334,4.859
		c-3.034,2.674-6.925,5.846-10.77,9.129c1.088-1.236,2.121-2.434,3.006-3.578c1.328-1.734,4.546-6.344,6.261-9.608
		c-2.84,3.347-5.413,6.344-8.566,8.437c1.448-1.448,2.868-2.923,4.15-4.528c5.671-7.229,8.299-14.791,10.281-23.892
		c-1.263,3.504-2.794,7.008-5.09,10.023c-1.024,1.282-2.582,2.886-3.956,4.444c-0.037,0.037-0.074,0.083-0.11,0.129
		c2.905-4.066,5.154-8.613,6.694-13.38c1.291-3.947,1.798-8.087,2.508-12.163c-1.706,5.145-4.195,9.894-7.515,14.403
		c-2.084,2.859-5.588,7.183-9.682,10.282c-0.387,0.341-1.07,0.839-1.909,1.439c0.184-0.231,0.387-0.48,0.618-0.738
		c1.485-1.798,3.246-3.347,4.694-5.173c1.309-1.734,3.559-5.044,4.325-7.736c-1.282,2.711-4.352,5.579-6.104,6.943
		c-2.49,1.771-5.514,2.646-7.884,4.611c-0.996,0.811-2.001,1.623-2.997,2.453c0.516-0.913,1.005-1.835,1.475-2.822
		c1.89-3.587,2.868-7.534,4.251-11.314c-1.429,2.545-2.868,5.726-4.426,8.152c1.448-2.444,2.647-4.989,3.615-7.939
		c1.061-3.08,2.278-6.123,2.84-9.341c0.655-3.707,0.83-7.488,1.411-11.204c-1.337,4.094-2.453,9.295-4.002,12.826
		c-0.268,0.701-0.839,1.918-1.54,3.255c2.564-6.335,3.956-13.158,4.131-19.982c-1.789,6.713-4.057,12.071-7.774,18.027
		c-2.462,3.873-4.232,6.63-6.03,9.147c0.535-1.189,1.097-2.379,1.78-3.578c1.789-3.264,4.03-6.289,5.652-9.654
		c1.356-2.665,1.964-5.579,2.72-8.446c-0.572,1.014-0.839,2.241-1.309,3.218c-0.664,1.549-2.222,4.048-2.868,4.896
		c-1.89,2.471-4.352,4.389-6.491,6.621c-2.232,2.075-6.307,8.068-6.501,8.271c-0.544,0.701-0.498,0.645-1.051,1.365
		c-0.839,1.033-1.724,2.02-2.628,2.997c1.568-3.098,3.025-6.252,5.081-9.074c-4.767,4.887-7.054,9.258-11.914,13.758
		c0.849-1.143,1.789-2.499,2.186-3.458c1.06-2.213,1.66-4.74,1.291-7.174c-0.101,1.494-0.913,2.822-1.761,4.039
		c-1.457,2.038-3.504,3.596-5.542,5.081c-0.931,0.664-1.807,1.402-2.656,2.167c0.507-1.236,1.125-2.416,1.955-3.541
		c-1.734,1.374-3.107,2.766-4.288,4.352c0.562-2.84,0.977-5.708,1.549-8.52c-1.577,4.454-2.84,7.571-4.233,10.042
		c0.397-1.3,0.775-2.739,1.162-4.454c1.549-6.741,2.637-14.099,7.183-19.586c-6.971,6.51-9.784,16.367-13.214,23.385
		c-2.093,3.9-3.421,5.496-6.215,8.4c1.779-2.37,4.389-6.206,5.274-8.797c1.245-3.144,1.89-6.584,1.964-9.968
		c-1.439,8.834-6.021,13.915-12.808,19.364c-2.859,2.637-5.099,4.97-7.349,7.017c1.595-2.296,2.739-4.952,3.089-8.096
		c-1.706,6.206-6.446,9.784-11.803,12.578c-2.277,1.106-7.266,2.25-10.641,3.864c-1.623,0.775-3.246,1.687-4.758,2.757
		c0.48-0.645,0.95-1.226,1.383-1.697c2.858-3.283,7.026-5.92,8.041-10.42c-1.319,3.283-4.186,5.219-6.962,7.036
		c-2.554,1.66-4.537,3.154-6.63,5.588c-1.18,1.429-2.167,2.766-2.978,4.085c0.821-1.9,1.77-3.771,2.656-5.874
		c0.922-2.231,1.669-4.823,0.774-7.174c0.664,2.951-0.977,5.625-2.416,8.068c-2.121,3.476-4.371,6.971-5.459,10.945
		c-0.858,3.191-1.07,6.565-0.673,9.839c0.563,3.808,2.176,9.903,2.149,11.379c0.018,0.443,0.313,1.973,0.194,4.279
		c0,0.264-0.041,0.788-0.088,1.311c-0.414-3.992-1.461-7.945-2.88-11.637c1.048,4.163,0.854,9.484,0.323,12.78
		c-0.582,3.454-1.15,5.757-2.479,8.249c1.235-3.234,1.69-6.727,1.698-10.211c-0.653,3.877-1.487,7.333-3.59,10.515
		c-2.583,4.095-6.493,7.954-10.191,9.588c-1.421,0.009-3.264-0.254-4.873-0.986c-0.575-0.27-1.616-0.87-2.673-1.732
		c0.814,0.281,1.67,0.425,2.545,0.353c0.563-0.064,1.215-0.111,1.627-0.545c-0.662,0.432-1.554,0.265-2.271,0.173
		c-0.891-0.212-1.543-0.442-2.262-0.983c-0.095-0.066-0.208-0.166-0.316-0.256c1.721,0.869,3.732,1.153,5.431,0.186
		c-1.01,0.353-2.002,0.155-2.963-0.185c-0.908-0.354-1.634-0.853-2.429-1.749c-0.417-0.46-0.75-1.031-1.041-1.671
		c1.035,1.564,2.643,2.882,4.582,2.634c-1.643-0.032-2.877-1.29-3.52-2.758c-0.533-1.227-0.9-3.298-1.405-5.092
		c0.599,1.561,1.113,3.313,2.535,4.578c0.315,0.255,0.72,0.603,1.149,0.444c-0.355,0.068-0.653-0.215-0.877-0.455
		c-0.723-0.786-0.979-1.836-1.2-2.965c-0.164-0.958-0.254-2.645-0.843-3.908c-0.321-0.658-0.884-1.499-1.412-2.126
		c-0.017-0.047-0.033-0.094-0.05-0.14c0.134,0.159,0.268,0.315,0.397,0.462c1.382,1.344,2.259,2.703,2.634,4.674
		c-0.106-2.443-1.112-4.726-2.438-6.744c-0.171-0.297-0.354-0.591-0.544-0.882c0.711,0.498,1.391,0.962,1.967,1.636
		c-1.003-1.867-2.645-3.093-3.585-4.706c-0.425-0.682-0.814-1.423-1.289-2.084c0.229,0.242,0.468,0.497,0.742,0.785
		c0.932,1.034,1.724,2.292,2.915,3.041c-0.927-0.79-1.336-2.044-1.864-3.123c-0.618-1.323-1.505-2.525-2.582-3.51
		c-0.035-0.031-0.077-0.05-0.113-0.079c0.011,0.001,0.021,0.004,0.032,0.004c-0.015-0.003-0.029-0.009-0.044-0.012
		c-0.302-0.244-0.638-0.434-0.991-0.59c0.958,0.281,1.973,0.366,3.02,0.183c-1.188,0.035-2.678-1.119-3.258-1.534
		c-0.061-0.044-0.11-0.101-0.169-0.148c0.867,0.317,1.769,0.525,2.697,0.561c-1.431-0.318-2.697-0.913-3.854-1.702
		c-0.16-0.192-0.296-0.402-0.443-0.605c1.094,0.451,2.298,1.112,3.499,0.815c-0.829,0.023-1.501-0.561-2.184-0.954
		c-0.422-0.265-0.914-0.63-1.408-1.017c1.084,0.125,2.128,0.081,3.071,0.758c-0.737-1.117-2.822-1.46-3.542-1.778
		c-0.265-0.119-0.522-0.254-0.775-0.394c0.115,0.003,0.23,0.006,0.349,0.006c1.576-0.069,3.284-0.12,4.638-1.025
		c-1.597,0.541-3.282,0.332-4.844-0.176c2.459-0.053,5.038-0.56,7.113-1.92c-1.052,0.467-2.26,0.643-3.406,0.539
		c-0.64-0.082-1.348-0.272-2.066-0.492c0.616-0.102,1.223-0.259,1.807-0.524c0.878-0.353,3.025-1.066,4.503-2.288
		c3.097-1.846,4.912-4.724,6.39-7.934c-1.472,1.795-2.85,3.816-4.756,4.914c-0.461,0.199-1.063,0.365-1.702,0.526
		c1.846-1.426,3.397-3.136,4.189-4.363c1.088-1.734,3.117-3.32,4.814-5.287c1.793-2.171,3.349-4.746,3.85-7.545
		c-0.458,2.041-1.913,4.104-3.022,5.669c-1.34,1.658-3.065,2.936-4.641,4.354c-1.559,1.603-3.277,3.159-5.064,4.455
		c0.58-0.522,1.16-1.044,1.735-1.572c2.08-2.01,4.573-4.079,5.737-5.91c0.222-0.336,0.424-0.685,0.615-1.04
		c1.036-1.278,0.885-0.727,1.903-2.746c0.498-1.175,0.767-2.452,0.784-2.609c0.277-1.116,0.806-2.146,1.19-3.226
		c0.646-2.007,2.073-4.917,4.507-6.196c-2.79,1.221-4.515,4.24-5.777,6.566c-0.283,0.534-0.507,0.959-0.701,1.329
		c0.006-0.067,0.015-0.135,0.02-0.202c-0.034,0.124-0.074,0.249-0.109,0.373c-0.54,1.037-0.846,1.658-1.574,3.124
		c-0.132,0.314-0.341,0.602-0.53,0.894c-0.751,0.81-1.588,1.586-1.96,1.8c-0.789,0.431-1.217,0.644-1.548,0.79
		c1.515-1.615,2.935-3.313,4.118-5.195c2.812-4.85,4.48-10.54,4.149-16.17c-0.079,2.731-0.555,5.32-1.348,7.768
		c0.116-0.531,0.229-1.061,0.306-1.6c0.14-3.034-0.57-7.949-1.136-8.896c-1.153-2.547-3.06-5.076-4.176-6.962
		c-1.537-2.093-3.507-5.586-3.487-8.824c-0.659,3.616,1.434,8.169,1.95,10.877c1.262,5.32,1.172,6.041,0.835,8.704
		c-0.306,2.698-1.201,5.705-1.383,5.675c-0.581,0.932-1.061,1.646-1.55,2.291c0.891-3.349,1.238-6.863,1.11-10.272
		c-0.489-4.549-1.174-4.022-2.242-10.421c-0.476-2.954-1.75-6.596-2.145-9.1c-0.734-5.396,0.502-10.129,2.884-15.157
		c-2.656,3.632-4.919,7.713-5.143,12.303c-0.09,5.757,1.296,13.133,0.401,17.424c-0.462,1.43-1.229,5.478-3.161,10.39
		c-0.102,0.241-0.219,0.516-0.326,0.772c-0.034,0.075-0.08,0.179-0.155,0.347c-0.101,0.218-0.207,0.434-0.31,0.651
		c0.773-4.728,0.416-9.667-1.231-13.05c0.429,1.155,0.38,2.421,0.413,3.636c0.003,1.528-0.099,2.469-0.398,3.888
		c-0.796,3.433-0.868,2.688-2.741,5.172c-2.949,4.019-2.101,3.118-5.472,6.653c0.323-0.768,0.61-1.546,0.881-2.33
		c0.525-1.191,1.813-2.968,2.424-4.48c1.05-2.835,1.898-5.925,1.402-8.962c0.168,2.058-0.308,3.998-0.955,5.949
		c-0.648,2.258-1.852,4.156-3.28,6.145c-1.563,2.201-2.293,3.762-3.625,5.568c-0.379,0.496-0.368,0.493-0.863,1.12
		c-0.504,0.622-1.025,1.236-1.639,1.753c-0.24,0.159-0.596,0.364-0.137,0.153c-0.555,0.291-1.58,0.961-2.613,1.912
		c0.269-0.414,0.541-0.831,0.823-1.257c1.731-2.273,5.332-6.271,5.798-10.305c-0.947,2.578-3.069,4.496-5.111,6.319
		c-2.043,1.539-6.39,3.637-8.734,6.03c-2.169,2.389-3.337,4.126-5.274,8.187c-0.246,0.449-0.485,0.905-0.71,1.367
		c0.227-1.724,0.597-3.554,1.511-5.515c1.175-2.982,3.478-5.346,4.78-8.25c-1.572,2.303-3.916,3.937-5.718,6.047
		c-2.204,2.875-4.75,5.775-5.564,9.394c-0.367,1.922,0.169,2.636,0.081,3.703c-0.025,0.161-0.053,0.346-0.07,0.45
		c-0.249,1.131-0.538,2.279-0.395,3.438c-0.666-1.782-0.638-3.806-1.65-5.436c0.696,2.26-0.523,4.677-0.035,7
		c0.183,0.835,0.439,2.049,0.96,2.958c-0.877-0.833-1.515-1.808-1.413-3.148c-0.391,1.749,0.565,3.388,1.496,4.792
		c0.187,0.321,0.344,0.702,0.507,1.063c-0.001,0.002-0.002,0.003-0.004,0.005c-4.326,3.78-7.752,9.349-6.761,15.382
		c0.02,0.344,0.273,0.263,0.374-0.01c1.536-3.527,5.811-4.225,9.217-4.75c1.334-0.141,2.85-0.081,3.972,0.111
		c1.364,0.212,2.567,0.536,3.932-0.091c0.101-0.04,0.212-0.101,0.313-0.172c0.647,0.9,1.951,0.879,2.971,1.284
		c0.516,0.202,1.284,0.899,1.799,1.526c0.043,0.05,0.082,0.109,0.124,0.162c0.211,0.418,0.453,0.827,0.612,1.196
		c0.022,0.081,0.08,0.283,0.142,0.508c0.004,0.06,0.004,0.121-0.005,0.185c-0.022,0.675-0.152,1.249-0.446,2.009
		c-0.313,0.798-1.059,1.876-1.962,2.436c0.785-0.291,1.475-0.802,2.026-1.436c-0.078,0.271-0.164,0.539-0.27,0.802
		c-0.027,0.063-0.059,0.135-0.09,0.208c0.004-0.01,0.003-0.007-0.009,0.02c-1.044,2.355-2.878,4.108-6.01,3.248
		c2.837,1.811,5.496,1.199,7.345-0.33c-0.367,0.446-0.774,0.893-1.03,1.109c-1.062,0.762-2.469,1.139-3.908,1.056
		c0.523,0.176,1.086,0.279,1.659,0.308c-1.193,0.707-2.012,1.184-2.981,1.417c-1.508,0.285-3.614,0.695-5.417-0.271
		c1.175,1.147,2.804,1.97,4.485,2.294c-0.984,0.215-1.99,0.363-2.725,0.452c-5.134,0.465-10.844-1.91-14.837-5.104
		c-1.203-0.97-2.304-2.062-3.366-3.184c-0.045-0.038-0.09-0.086-0.135-0.131c-2.085-3.382-3.657-7.264-4.591-11.261
		c0.279,2.983,0.977,6.005,2.017,8.908c-0.337-0.654-0.662-1.318-0.963-1.999c-0.876-2.038-2.296-6.824-2.637-9.94
		c-0.323-2.204-0.47-5.376-1.651-7.644c0.756,2.121,0.655,4.38,0.664,6.611c-1.365-8.133-4.832-16.1-11.84-20.471
		c-1.964-1.226-4.159-2.029-6.003-3.439c-2.167-1.429-7.819-7.395-10.613-10.945c-1.826-2.001-4.103-3.541-5.828-5.634
		c-1.097-1.328-2.185-3.522-2.905-5.321c0.544,2.084,1.152,4.177,2.287,6.021c1.475,2.232,2.868,3.688,4.306,5.782
		c0.645,0.987,1.199,1.927,1.706,2.84c-3.734-4.159-5.837-7.783-11.001-12.43c-3.919-4.103-4.915-6.51-6.049-12.67
		c-0.645-4.021-0.756-9.35,0.655-13.85c-2.84,6.427-3.356,13.915-2.093,20.794c0.922,4.758,3.089,9.101,5.892,13.002
		c-0.092-0.083-0.166-0.157-0.249-0.258c-3.144-3.615-6.28-9.212-7.266-14.828c0.009,4.546,1.272,9.553,3.504,13.979
		c-0.046-0.046-0.111-0.092-0.157-0.148c-2.859-2.812-4.048-4.509-6.243-8.133c-1.014-1.816-2.13-3.55-2.499-5.606
		c0.221,2.923,0.691,5.901,1.503,8.778c-0.535-0.977-1.116-2.112-1.743-3.486c-0.046-0.111-0.092-0.231-0.148-0.387
		c-1.254-3.559-2.914-9.442-3.928-10.992c-2.979-6.87-9.682-11.987-10.77-19.521c-0.221,3.439,1.374,6.621,2.766,9.673
		c0.627,1.383,1.245,2.932,1.826,4.555c-0.885-1.558-1.89-3.163-3.034-4.859c-4.906-7.423-5.726-16.266-2.434-25.45
		c-1.429,3.043-2.776,6.187-3.338,9.525c-0.756,4.989-0.387,10.152,0.793,15.049c0.378,1.503,0.839,2.988,1.328,4.463
		c-1.208-2.278-2.204-4.61-2.6-7.229c-0.166,3.55,1.217,6.897,2.13,10.263c0.59,2.167,0.802,3.421,1.042,4.998
		c-0.692-1.125-1.309-2.278-1.724-3.347c0.332,1.558,0.747,3.144,1.282,4.666c-1.18-1.946-2.13-4.057-2.729-6.455
		c0.101,1.097,0.267,2.185,0.498,3.255c-2.563-5.754-3.983-12.043-4.177-17.87c-0.434-5.92,2.683-11.748,0.563-17.778
		c0.848,3.725-0.424,7.451-1.42,11.028c-0.36,1.272-0.636,2.573-0.858,3.873c0.194-2.259,0.59-4.5,1.236-6.694
		c-3.587,7.488-3.633,17.059-1.365,26.225c-1.734-3.559-2.877-7.681-2.914-11.932c-1.217,6.962,1.669,13.398,3.541,19.973
		c-1.577-2.776-3.993-4.97-5.708-7.654c1.282,3.061,3.771,6.021,4.666,8.834c0.175,0.489,0.341,0.987,0.507,1.485
		c-1.531-2.932-3.624-5.523-5.145-8.456c-2.066-3.947-3.624-8.649-1.844-13.38c-2.296,3.873-1.844,8.76-0.443,12.873
		c0.83,2.342,1.946,4.546,2.96,6.611c-2.139-3.808-4.703-7.451-5.127-11.914c-0.194,4.481,1.872,8.594,2.886,12.863
		c0.904,3.615,1.669,7.303,2.886,10.816c-0.295-0.553-0.563-1.116-0.793-1.66c-1.521-3.384-1.863-7.285-3.891-10.429
		c1.309,3.006,1.024,6.261,1.743,9.452c0.747,3.891,2.49,7.534,4.795,10.752c-2.61-2.748-4.749-5.966-5.782-9.682
		c0.765,4.85,2.849,9.212,5.689,13.103c-1.162-1.254-2.204-2.637-3.605-3.642c1.734,1.982,2.693,4.564,4.454,6.51
		c-3.292-2.056-8.133-6.243-9.138-10.586c0.092,1.337,0.433,2.72,0.968,4.094c-0.139-0.203-0.304-0.406-0.434-0.618
		c-0.249-0.526-0.498-1.061-0.738-1.641c-0.83-1.881-1.872-6.611-4.62-8.068c2.278,2.204,2.075,5.763,2.785,8.659
		c0.562,2.849,1.263,5.726,2.397,8.41c0.166,0.553,0.351,1.088,0.599,1.604c1.033,2.314,2.471,4.454,4.233,6.289
		c-1.687-1.42-3.154-3.089-4.693-4.657c3.329,5.099,8.068,11.794,13.14,13.241c0.922,0.203,1.697,0.286,2.646,0.378
		c-0.904,0.055-1.789,0.101-2.656,0.092c-1.3-0.157-3.384-0.977-4.592-2.102c1.07,1.319,2.49,2.361,4.057,3.043
		c1.66,1.171,3.578,1.946,5.339,2.978c0.314,0.194,0.618,0.415,0.931,0.636c-0.138-0.055-0.268-0.111-0.378-0.157
		c-2.121-1.042-4.26-2.056-6.584-2.554c3.061,1.18,4.73,3.403,7.156,5.45c2.176,1.623,4.896,2.065,7.404,2.923
		c-1.558-0.332-3.126-0.664-4.703-0.931c-1.678-0.332-4.62-0.074-6.528-1.051c1.881,1.457,5.44,1.872,7.036,2.637
		c0.738,0.323,1.457,0.692,2.176,1.079c-0.857-0.157-1.568-0.258-2.01-0.277c-6.556-0.802-12.993-1.475-18.931-8.695
		c3.559,7.755,11.821,9.95,19.088,12.605c1.586,0.627,3.218,1.309,4.758,1.992c-1.402-0.526-2.84-1.088-4.316-1.715
		c-4.952-1.835-10.549-2.268-14.846-5.477c3.218,3.375,7.976,4.426,11.822,6.879c3.172,1.918,6.279,3.974,9.535,5.736
		c-2.121-0.378-4.177-1.06-6.16-1.9c-2.167-0.904-4.057-2.37-6.252-3.2c1.844,1.051,3.357,2.573,5.136,3.735
		c2.416,1.549,4.97,2.969,7.7,3.891c3.384,0.977,6.787,1.927,10.189,2.859c-5.191-1.024-10.484-2.259-16.211-1.448
		c3.356,0.055,6.584,0.636,9.82,1.558c-0.111-0.009-0.212-0.018-0.332-0.037c-7.294-0.572-13.426-0.498-20.157-3.753
		c5.948,4.316,12.956,6.538,19.89,8.723c1.273,0.396,2.527,0.867,3.771,1.337c-3.467-0.738-6.916-2.01-10.733-2.766
		c3.366,1.19,6.381,3.172,9.701,4.463c1.604,0.636,3.098,1.171,4.546,1.604c-0.673,0.102-1.392,0.212-2.195,0.36
		c-2.37,0.489-4.592,1.632-6.99,1.955c2.434,0.111,4.666-0.544,7.008-0.599c-0.839,0.157-1.669,0.341-2.499,0.581
		c-4.408,1.263-9,2.757-13.149,0.138c4.131,3.633,9.922,2.831,15.003,3.227c1.448,0.157,3.735,0.673,6.289,1.134
		c-3.901-0.111-8.05-0.747-13.822,0.396c3.006-0.019,5.689,0.092,8.548,0.857c3.135,0.885,6.307,2.001,9.562,2.195
		c-1.125,1.042-1.992,2.333-3.135,3.375c-1.475,1.337-3.126,2.573-5.155,3.274c2.425-0.258,5.127-1.863,7.026-2.813
		c-3.172,2.499-6.15,4.915-11.683,5.191c5.505,0.544,10.816-1.484,16.063-3.024c-2.259,1.393-4.5,2.776-7.119,3.338
		c2.969-0.111,5.763-1.217,8.668-1.697c-0.931,0.526-1.863,1.06-2.748,1.66c1.254-0.452,2.831-0.885,4.454-1.254
		c-0.913,0.415-1.936,0.913-3.246,1.586c-3.578,2.158-6.602,3.458-11.185,3.08c2.48,0.738,6.261,0.729,8.197,0.267
		c0.277-0.064,5.284-0.627,5.284-0.609c1.19-0.148,2.554-0.277,4.02-0.424c-2.877,0.562-5.772,1.079-8.548,2.038
		c5.173-0.599,10.189-0.618,14.874-1.042c-0.341,0.166-0.692,0.314-1.051,0.461c-2.093,0.83-4.481,0.664-6.445,1.826
		c1.752-0.627,3.624-0.341,5.45-0.424c2.379-0.221,4.804-0.701,6.962-1.77c0.046-0.028,0.083-0.055,0.129-0.074
		c-2.314,2.075-4.629,4.057-7.838,4.767c4.076-0.065,7.275-2.951,10.53-3.836c-0.055,0.037-0.111,0.083-0.175,0.12
		c-4.389,3.181-8.557,6.695-14.127,5.533c4.703,2.038,9.756,0.074,14.348-1.3c1.522-0.443,3.725-0.931,6.049-1.669
		c-1.448,0.987-2.785,1.641-3.126,1.807c-3.043,1.208-6.307,1.826-9.111,3.578c1.134-0.332,2.259-0.719,3.43-0.876
		c0.95-0.129,2.536-0.074,3.716-0.074c3.107,0.046,4.758-0.184,6.98-0.941c-2.397,2.213-4.647,4.555-6.593,7.183
		c2.231-2.139,4.352-3.393,6.962-4.315c-1.208,0.977-2.388,2.01-3.458,3.144c-1.171,1.254-2.259,2.582-3.227,3.993
		c-0.443,0.719-1.005,1.448-1.134,2.305c1.199-2.241,3.633-4.057,5.874-5.182c1.429-0.692,3.375-1.254,5.376-1.983
		c-0.212,0.175-0.433,0.332-0.627,0.461c-2.084,1.42-4.767,2.268-6.15,4.491c1.558-1.66,3.854-1.973,6.003-2.453
		c1.872-0.35,3.67-1.023,5.33-1.964c0.941-0.526,2.185-1.383,3.43-2.407c-0.756,1.881-1.697,3.891-2.859,5.385
		c1.143-0.894,2.185-1.946,3.126-3.08c-0.839,2.6-3.338,5.865-2.886,9.562c0.498-2.305,2.001-3.984,3.513-5.726
		c-0.839,1.568-1.77,3.08-2.333,4.767c0.083-0.138,0.175-0.258,0.267-0.387c-0.129,0.378-0.23,0.775-0.267,1.19
		c0.719-1.466,1.844-2.149,3.2-2.905c0.599-0.332,1.134-0.544,1.669-0.738c-1.466,0.913-3.227,2.121-3.495,3.725
		c0.544-1.134,1.678-1.494,2.72-1.826c1.291-0.332,2.554-0.765,3.744-1.356c-0.857,1.005-1.89,1.863-3.135,2.923
		c1.061-0.609,2.296-0.858,3.338-1.503c0.35-0.194,0.692-0.424,1.014-0.655c-0.295,0.83-0.526,1.697-0.636,2.564
		c0.341-0.775,0.774-1.448,1.254-2.093c-0.037,0.111-0.083,0.221-0.129,0.341c-0.406,1.309-1.346,3.273-0.249,4.445
		c-0.313-0.406-0.175-0.922-0.009-1.356c0.249-0.692,0.968-1.623,1.494-2.324c0.12-0.157,0.332-0.424,0.59-0.738
		c-0.443,1.401-0.609,2.822-0.286,4.057c0.028-1.189,0.553-2.25,1.162-3.144c-0.037,0.747-0.064,1.494-0.138,2.222
		c-0.055,1.07-0.387,2.167-0.627,3.688c0.406-0.839,0.913-1.632,1.365-2.453c-0.286,0.765-0.627,1.411-1.263,3.025
		c-0.332,1.024-0.977,2.527,0.009,3.366c-0.434-0.525-0.101-1.263,0.212-1.761c0.516-0.802,1.051-1.392,1.78-2.259
		c0.673-0.775,1.273-1.595,1.798-2.462c-0.332,1.346-0.839,2.803-1.595,4.269c1.042-0.968,1.973-2.038,2.73-3.227
		c0.175,1.07,0.396,2.121,0.562,3.172c0.249-1.484,0.452-2.877,0.636-4.14c0.378,3.283,1.144,6.51,2.822,6.98
		c-1.162-0.839-0.811-2.333-0.811-3.605c0.028-0.627,0.083-1.254,0.148-1.881c0.203,1.19,0.479,2.379,0.83,3.532
		c0.064-1.217,0.219-2.4,0.409-3.58c0.358,2.025,0.541,2.82,0.606,4.935c-0.009,0.922-0.111,1.872-0.682,2.794
		c1.651-1.199,2.361-3.255,2.729-5.33c0.018,0.092,0.037,0.175,0.065,0.267c-0.987,2.536-0.876,5.413-0.599,8.096
		c0.147,1.632,0.406,3.292-0.304,4.795c1.042-1.088,1.475-2.554,1.844-3.974c0,0.12-0.009,0.24-0.009,0.36
		c0,2.858,0.977,5.809-1.402,7.801c1.817-0.811,2.812-2.37,3.449-4.131c-0.332,1.457-0.636,2.25-1.346,3.513
		c-0.756,1.282-1.282,2.093-2.388,3.034c-0.304,0.203-0.848,0.71-1.337,0.673c0.498,0.175,1.033,0.074,1.549-0.092
		c-0.276,0.277-0.553,0.516-0.811,0.71c-1.475,1.07-2.951,1.531-4.749,1.964c-1.06,0.24-2.121,0.184-3.292,0.581
		c-0.212,0.083-0.415,0.203-0.609,0.332c-0.102,0.083-0.406,0.203-0.406,0.24c-0.194,0.018-0.387,0.083-0.59,0.102
		c-0.037,0-0.166,0.046-0.221,0.064c-0.009,0-0.018,0.009-0.028,0.009c-1.328,0.572-2.775,1.733-4.02,2.914
		c-0.563,0.563-0.987,1.337-1.263,2.019c-0.028,0.092-0.111,0.267-0.129,0.36c-0.028,0-0.184,0.037-0.24,0.101
		c-0.129,0.083-0.36,0.268-0.489,0.48c-0.369,0.461-0.443,1.531-0.396,1.816c0.092,0.913,0.304,1.245,0.701,2.379
		c0.018,0.046,0.046,0.083,0.074,0.111c0.018,0.055,0.037,0.12,0.037,0.157c0.074,0.876,0.203,2.453,0.775,3.449
		c0.913,2.084,2.748,3.928,4.509,5.118c0.184,0.184,0.553,0.055,0.35-0.221c-0.682-0.572-1.328-1.189-1.899-1.872
		c-1.355-1.558-2.167-4.297-1.494-5.883c0.028-0.046,0.184-0.526,0.249-0.572c0.028-0.065,0.166-0.166,0.267-0.341
		c0,0.055,0.138-0.12,0.24-0.203c0.212-0.212,0.387-0.461,0.526-0.728c0.378-0.719,0.378-1.226,0.516-2.213
		c0.009-0.028,0.018-0.055,0.018-0.083c0.009,0,0.009-0.009,0.009-0.009s0.046-0.046,0.129-0.092
		c0.037-0.028,0.443-0.258,0.664-0.397c0.064-0.028,0.194-0.129,0.277-0.194c0.027-0.028,0.055-0.046,0.092-0.074
		c0.378-0.35,0.673-0.655,1.014-0.858h0.028c0.009,0,0.009,0,0.028,0c0.028-0.009,0.064,0,0.101,0
		c0.12,0.018,0.138-0.018,0.203-0.009c0.194,0,0.194-0.018,0.157-0.037c0.535,0.009,1.06-0.194,1.577-0.332
		c0.655-0.212,1.051-0.599,1.521-0.747c0.037,0.018,0.074,0.037,0.111,0.055l-0.028-0.028c0.221,0.148,0.157,0.065,0.415,0.138
		c0.028,0,0.055,0,0.092,0.009c0.046,0.009,0.102,0.018,0.157,0.018c0.055,0.009,0.101,0.009,0.138,0.009
		c-0.249,0.728-0.341,1.439-0.304,2.056c-0.037,0.295-0.028,0.332-0.111,0.406c-0.203,0.064-0.157,0.074-0.387,0.221
		c-0.941,0.701-1.466,1.983-1.448,2.941c-0.055,0.848,0.046,1.789,0.387,2.398c0.277,0.479,0.378,0.747,0.922,1.097
		c0.092,0.065,0.175,0.083,0.258,0.092c0.599,0.931,1.651,2.029,2.803,2.766c1.162,0.719,2.536,1.125,3.854,1.199
		c0.673-0.009,1.319,0.037,1.918-0.295c0.009,0,0.018,0,0.028-0.009c0.009,0,0.009-0.009,0.009-0.009
		c0.12-0.138-0.018-0.378-0.203-0.323c-2.213,0.295-5.081-1.678-5.68-3.587c-0.074-0.148-0.101-0.323-0.083-0.304
		c0.157-0.47,0.332-0.94,0.332-1.448c-0.009-0.314-0.018-0.609-0.111-0.922c0.092-0.083,0.184-0.175,0.23-0.276
		c0.055-0.037,0.286-0.424,0.323-0.553c0.194-0.498,0.157-1.014,0.258-1.061c0.009,0,0,0,0.009-0.009
		c0.046-0.018,0.083-0.055,0.111-0.101c0.646-0.747,1.771-1.632,2.361-2.776c0.221-0.378,0.498-0.885,0.618-1.143
		c0.018-0.074,0.055-0.166,0.074-0.249c0.304,0.221,1.282,0.655,1.641,0.793c0.313,0.129,0.535,0.47,0.839,0.765
		c0.258,0.295,0.876,0.645,0.987,0.756c0.009,0.009,0.009,0.018,0.009,0.028c0,0,0.046,0.36,0.074,0.572
		c0.175,0.922,0.018,2.361-0.452,3.273c-0.221,0.443-0.461,0.784-0.793,1.134c-0.055,0.046-0.101,0.129-0.083,0.212
		c0.673,0.784,2.619-1.992,2.84-2.6c0.387-0.821,0.489-2.047,0.526-2.766c0.083-0.498,0.286-0.977,0.175-1.485
		c0-0.175-0.193-0.867-0.24-0.941c-0.018-0.046-0.046-0.101-0.074-0.148c-0.24-0.461-1.042-1.134-1.199-1.309
		c-0.332-0.433-0.314-0.673-0.599-1.328c-0.369-0.858-0.71-1.014-0.212-1.429c0.738-0.59,2.047-1.439,3.098-2.462
		c-0.055,0.397-0.083,0.793-0.037,1.208c0.102,0.71,0.268,1.623,0.968,1.973c-0.461-0.47-0.23-1.208-0.092-1.761
		c0.341-0.996,0.959-1.771,1.623-2.61c-0.212,1.033-0.24,2.056,0.36,2.997c-0.314-1.07,0.36-2.102,0.968-2.932
		c0.443-0.59,0.857-1.199,1.226-1.844c-0.175,1.079-0.931,3.227,0.194,4.417c-0.387-1.143,0.452-2.13,1.033-3.052
		c0.406-0.627,0.719-1.328,0.959-2.056c0.111,0.433,0.203,0.885,0.24,1.383c0.138-0.498,0.212-1.023,0.24-1.558
		c0.129,0.406,0.249,0.756,0.341,1.005c0.535,1.466,1.65,3.071,0.922,4.73c0.977-1.199,0.71-2.84,0.645-4.315
		c0.553,0.987,0.968,1.909,1.328,3.181c0.295,1.365,0.636,3.08-0.618,4.371c1.236-0.627,1.881-1.964,2.195-3.255
		c0.148-0.599,0.203-1.208,0.212-1.817c0.461,1.023,0.913,2.232,1.319,3.532c-0.018,0.028-0.037,0.065-0.055,0.083
		c-0.71,1.125-0.793,1.245-0.968,1.337c-2.407,0.618-4.721,1.503-7.063,2.333h-0.037c-0.028-0.009-0.055-0.018-0.083-0.018
		c0,0,0-0.009-0.009-0.009h-0.028l-0.009-0.009c-0.009,0-0.009,0-0.009,0c-1.448-0.572-3.034,0.885-3.513,2.176
		c-0.074,0.212-0.23,0.461-0.323,0.738c-0.452,0.47-0.839,1.023-1.106,1.466c-1.033,1.54-1.54,3.688-1.54,5.514
		c0.009,1.005,0.028,2.038,0.369,2.988c0.037,0.074,0.101,0.166,0.194,0.166c0.203,0.028,0.267-0.175,0.212-0.332v-0.055
		c-0.046-0.277-0.074-0.461-0.092-0.673c-0.157-2.278,0.673-4.482,2.065-6.003c0.332-0.36,0.701-0.682,0.95-0.895
		c0.018-0.018,0.037-0.028,0.037-0.028c0.009-0.009,0.028-0.018,0.028-0.028c0.055-0.055,0.129-0.12,0.175-0.194
		c0.009,0,0.009,0,0.009,0c0.046-0.055,0.092-0.101,0.138-0.157c0,0.018,0.009,0.018,0.055-0.037
		c0.212-0.185,0.258-0.212,0.359-0.277c0.018,0.009,0.037,0.018,0.046,0.018l-0.028-0.028c0.111,0.074,0.258,0.083,0.387,0.092
		c0.415-0.028,0.406-0.055,0.655-0.037c-0.009-0.009-0.009-0.009-0.009-0.009c0.055,0.009,0.129,0.009,0.203-0.028
		c0.027-0.009,0.046-0.019,0.046-0.019c0.055-0.018,0.092-0.037,0.12-0.046c0.101-0.037,0.194-0.111,0.286-0.175
		c-0.756,0.922-1.54,1.872-2.388,2.868c-0.784,0.738-1.189,1.438-1.162,2.564c0.129,1.411-0.332,2.72-0.074,3.688
		c0.074,0.221,0.461,0.756,0.553,0.821c0.028,0.055,0.056,0.102,0.083,0.157c0.037,0.064,0.074,0.129,0.11,0.194
		c-3.642,1.771-7.349,2.979-11.102,3.689c-0.056,0.074-1.568,0.212-3.384,0.267c-4.408-0.157-8.741-1.162-12.679-3.227
		c-5.459-2.895-9.968-7.045-12.393-12.919c1.789,6.058,6.381,10.899,11.849,13.878c0.434,0.24,0.876,0.461,1.319,0.664
		c-0.516-0.157-1.014-0.341-1.512-0.535c-7.617-3.393-13.822-8.871-17.916-14.376c-4.979-7.395-7.903-15.003-8.188-23.79
		c-0.12-2.471-0.129-5.007,0.894-7.312c-1.494,2.425-1.697,5.339-1.863,8.115c-0.47,6.215,0.775,12.448,3.07,18.212
		c3.771,9.618,10.577,17.419,19.254,22.075c-12.91-6.086-21.116-18.027-24.039-32.2c0.812,7.414,3.504,14.726,7.82,20.812
		c4.279,5.606,9.82,10.42,16.192,13.5c-1.816-0.332-3.688-0.729-5.717-1.236c-8.142-2.388-16.054-7.137-23.597-12.504
		c-4.048-3.043-9.71-8.207-13.638-12.992c-2.047-2.342-5.431-7.986-6.566-10.899c-2.462-5.477-5.394-15.178-3.117-22.748
		c-3.993,11.794,0.848,25.874,8.124,35.556c6.114,7.598,13.795,13.85,22.186,18.765c5.708,3.393,11.757,6.464,18.285,7.893
		c3.163,0.646,6.372,1.199,9.599,1.549c-1.152,0.083-2.388,0.111-3.799,0.083c-7.202-0.092-16.644-3.071-23.016-6.197
		c-7.312-3.836-11.775-7.405-17.705-12.891c-6.012-5.957-11.167-14.698-13.564-21.282c-2.388-6.75-3.486-12.725-2.868-19.669
		c0.139-2.536,0.526-4.758,1.448-7.367c0.59-1.641,1.226-3.283,2.37-4.666c-3.956,4.232-5.145,10.245-5.754,15.823
		c-0.655,8.585,1.374,17.124,5.136,24.832c-3.91-7.073-6.261-15.169-6.916-24.427c-0.452,17.548,7.838,31.942,20.508,42.417
		c7.478,6.944,16.257,12.116,25.312,15.279c-5.422-1.107-10.521-3.393-15.814-6.316c-8.613-4.638-15.786-9.885-22.066-17.456
		c-4.122-4.859-7.773-11.72-10.032-17.843c-2.545-5.855-5.588-19.125-11.545-21.642c1.946,0.996,3.2,2.988,4.186,4.878
		c1.392,2.914,2.416,6.123,3.504,9.286c2.066,6.233,4.251,12.476,7.506,18.202c6.953,12.31,18.212,21.596,29.913,27.922
		c0.646,0.378,1.282,0.728,1.927,1.079c-1.217-0.507-2.425-1.033-3.587-1.604c-11.176-5.099-20.738-12.485-27.525-22.822
		c6.704,12.292,17.225,20.591,29.553,26.363c-9.793-3.827-20.001-10.088-27.046-17.539c-4.62-4.813-7.1-7.856-10.586-13.112
		c-3.006-4.592-5.8-9.378-7.7-14.542c4.011,15.833,13.491,30.328,26.317,40.434c6.602,5.026,14.053,9.221,21.965,11.987
		c-5.311-1.512-10.798-3.633-15.16-6.003c-7.506-3.762-13.453-7.921-19.364-12.993c-0.461-0.387-0.913-0.775-1.365-1.171
		c-2.656-4.611-5.127-9.424-7.755-14.081c-4.039-7.405-13.297-21.9-22.343-22.389c3.006,0.47,5.634,2.314,7.746,4.398
		c2.877,2.868,4.878,5.754,7.192,9.101c4.048,5.837,7.349,12.495,10.835,19.041c-3.135-3.015-6.031-6.261-8.419-9.903
		c2.905,5.92,7.128,11.065,11.665,15.833c5.45,9.498,11.886,18.119,22.287,22.757c7.073,3.145,14.634,5.551,22.416,5.819
		c3.338,0,6.676-0.258,9.987-0.728c-14.938,2.333-30.171,0.221-43.265-9.11c9.876,8.493,19.835,12.006,32.882,12.476
		c13.573-0.074,26.889-4.002,38.977-10.152c-10.18,7.469-24.224,12.319-36.893,13.408c-5.348,0.609-10.033-0.747-15.27-1.392
		c2.766,0.498,5.422,1.494,8.188,1.983c2.665,0.526,5.394,0.618,8.096,0.489c7.552-0.479,14.975-2.545,22.02-5.238
		c6.713-2.812,12.919-6.722,18.783-11.001c1.033-0.784,2.001-1.641,2.951-2.508c0.083-0.055,0.166-0.111,0.258-0.157
		c-8.742,9.175-19.346,15.814-31.822,18.848c-8.419,2.241-17.225,3.495-25.644,0.36c5.127,2.508,10.752,3.034,16.358,2.545
		c-2.988,0.452-5.938,0.729-8.834,0.83c-0.747,0.009-1.485,0.009-2.213,0c-6.667-2.333-10.992-4.813-17.64-9.571
		c-4.454-3.274-8.391-6.418-13.564-10.687c-5.643-4.38-11.794-9.507-19.134-10.291c6.621,1.439,11.406,6.095,16.266,10.383
		c5.477,5.026,10.641,10.42,16.598,14.883c1.955,1.558,3.974,2.969,5.994,4.233c-1.54-0.295-3.098-0.664-4.703-1.116
		c-3.707-1.107-7.128-2.48-10.244-4.896c5.155,5.044,12.808,7.893,20.563,9.147c1.439,0.719,2.84,1.355,4.168,1.9
		c5.431,2.416,11.204,4.279,17.197,4.398c7.432,0.12,14.828-2.139,21.006-6.261c7.017-4.306,13.131-9.977,18.202-16.45
		c0.931-1.217,1.872-2.416,2.812-3.633c0.341-0.267,0.682-0.563,1.024-0.839c-2.729,3.596-5.708,7.174-8.862,10.798
		c-6.556,7.893-15.132,13.509-25.008,16.072c-7.183,2.075-14.929,2.388-22.057-0.424c8.152,4.03,17.612,2.969,25.957,0.092
		c6.353-2.158,12.172-5.791,17.253-10.134c3.477-3.117,6.473-6.731,9.479-10.281c1.688-2.029,3.31-4.103,4.887-6.215
		c-0.028,0.055-0.055,0.12-0.083,0.184c-1.494,2.96-3.181,5.837-5.026,8.594c-4.979,7.22-11.388,14.127-19.89,18.71
		c-4.334,2.434-8.253,4.085-13.186,5.238c-3.624,0.913-6.565,1.365-10.346,1.116c-4.472-0.249-7.441-0.793-11.729-1.282
		c-3.91-0.369-8.622-0.775-11.858,1.807c0.682-0.452,1.503-0.719,2.278-0.941c2.176-0.59,4.481-0.526,6.768-0.249
		c6.575,0.857,14.145,2.858,21.172,1.697c6.824-1.07,13.334-3.596,19.29-7.082c-0.867,0.682-1.817,1.374-3.292,2.444
		c-7.746,5.348-13.702,8.327-22.721,10.06c-7.248,1.208-17.437,1.854-25.533-0.931c3.568,1.964,7.672,2.757,11.637,3.504
		c5.625,0.922,11.397,1.282,17.059,0.516c10.42-1.254,20.01-6.353,28.419-12.402c1.872-1.355,4.509-3.458,7.423-6.132
		c-5.726,5.754-12.356,10.623-19.779,14.302c-7.617,3.652-16.469,5.689-25.09,5.846c14.993,0.922,29.48-5.653,40.776-15.159
		c5.118-4.011,9.424-8.898,13.214-14.154c-0.203,0.572-0.406,1.143-0.636,1.706c-0.526,1.208-1.189,2.702-1.936,4.297
		c-5.201,8.741-12.993,15.925-23.551,19.069c6.602-1.319,12.91-4.703,17.751-8.926c-0.028,0.018-0.037,0.046-0.064,0.074
		c-5.035,6.067-14.781,12.292-23.292,12.384c4.472,0.507,8.898-0.756,13.011-2.573c-0.987,0.71-2.029,1.411-3.135,2.084
		c-2.979,1.328-6.077,2.268-9.166,2.6c-4.279,0.618-8.677,0.184-12.9,1.153c-1.392,0.415-2.969,0.775-3.901,1.983
		c0.664-0.692,1.577-0.996,2.499-1.19c2.932-0.692,6.086-0.258,9.138-0.018c4.445,0.36,8.954,0.424,13.324-0.572
		c5.118-0.747,14.956-5.339,18.516-8.677c6.565-5.56,11.674-13.085,13.739-21.457c0.037,0.194,0.055,0.387,0.092,0.581
		c0.747,6.243,3.117,12.135,6.704,17.289c9.267,13.361,27.377,21.651,42.878,15.04c-9.959,2.628-19.604,0.304-27.718-5.201
		c-7.442-4.74-13.841-12.983-16.248-21.172c-1.383-5.367-2.065-10.383-1.89-15.436c1.051,7.524,3.808,14.809,8.317,20.941
		c3.154,4.5,10.152,10.604,16.921,11.969c2.877,0.655,6.068,0.913,8.815-0.35c-4.223,1.171-8.281-0.452-11.757-2.305
		c-8.954-5.293-13.204-13.822-15.768-23.947c-0.719-3.532-1.162-6.575-1.226-9.544c0.313,6.427,1.881,12.743,5.071,18.507
		c-3.688-9.138-3.891-18.47-1.816-27.258c-0.009,1.798,0.074,3.605,0.277,5.394c0.479,4.758,1.337,9.507,3.126,13.951
		c3.605,9.369,11.185,17.179,20.36,21.218c-11.794-6.907-18.036-17.492-20.093-30.319c-0.028-0.212-0.055-0.433-0.083-0.655
		c0.396,1.254,0.83,2.499,1.337,3.725c3.661,8.769,9.378,16.893,16.994,22.647c2.978,2.407,8.695,5.56,13.214,7.663
		c4.694,2.407,9.857,4.417,13.417,8.188c0.821,0.867,2.158,2.619,0.885,3.652c0.867-0.406,0.756-1.669,0.406-2.407
		c-1.54-3.089-4.472-5.21-7.248-7.128c-5.975-3.79-13.749-7.921-18.396-11.591c-0.332-0.286-0.655-0.581-0.977-0.867
		c2.315,1.669,4.823,3.08,7.405,4.288c5.652,2.526,11.702,3.983,17.714,5.376c4.712,1.116,9.009,1.992,12.808,4.426
		c1.365,0.968,2.979,2.158,3.744,4.066c0.821,1.946,0.147,4.334-1.89,5.182c3.329-1.042,3.403-5.284,1.466-7.663
		c-6.289-8.179-19.973-8.732-29.102-12.504c-2.268-0.793-4.869-2.084-7.303-3.569c1.116,0.535,2.25,1.07,3.393,1.577
		c0.415,0.23,0.83,0.461,1.263,0.682c10.493,4.979,22.379,6.335,33.878,5.468c7.746-0.719,14.477-2.416,22.462-1.706
		c2.314,0.166,4.601,0.267,6.713,1.319c-2.37-1.503-5.238-1.826-7.949-2.278c-7.266-1.319-14.588,0.037-21.872,0.341
		c-9.857,0.461-19.696-0.747-28.097-4.15c4.417,1.531,9.027,2.398,13.721,2.398c1.411-0.009,2.822-0.065,4.242-0.175
		c1.171-0.064,2.342-0.147,3.504-0.286c5.56-0.563,10.918-2.259,16.423-3.126c2.619-0.526,11.489-0.941,15.703-0.184
		c4.03,0.59,8.078,1.355,11.886,2.822c1.051,0.415,2.084,0.913,3.071,1.531c0.378,0.249,0.802,0.479,1.005,0.894
		c-0.074-0.258-0.295-0.47-0.489-0.664c-1.116-0.987-2.416-1.752-3.744-2.416c-5.275-2.471-11.029-3.974-16.81-4.666
		c-1.485-0.221-3.052-0.304-4.657-0.295c3.568-0.811,7.054-1.973,10.466-3.255c5.763-2.185,11.388-4.767,16.745-7.829
		c3.449-1.918,6.593-4.343,10.042-6.261c3.689-2.075,7.46-3.523,11.775-3.578c1.531,0.065,3.163,0.037,4.537,0.793
		c-3.024-1.872-7.165-1.798-10.586-1.3c-10.189,1.577-17.898,9.249-27.359,12.799c-4.195,1.955-15.067,5.588-19.383,5.994
		c-4.574,0.563-9.175,0.526-13.776,0.516c-0.148-0.009-0.295-0.018-0.443-0.028c3.596-0.028,7.183-0.258,10.715-0.71
		c7.93-0.959,15.676-3.255,22.619-7.257c7.958-4.555,15.694-10.226,24.067-13.389c4.205-1.66,8.649-3.034,13.223-2.822
		c-17.382-2.121-32.809,12.07-47.138,16.672c-7.266,2.204-14.237,3.218-21.125,3.061c12.458-1.07,24.519-6.326,33.629-14.966
		c-12.817,9.553-29.544,13.214-43.459,10.245c-1.485-0.332-2.951-0.728-4.38-1.162c8.05,1.964,16.441,2.388,24.546,0.378
		c14.864-3.984,29.295-13.324,35.806-27.682c-8.336,12.946-23.237,20.683-37.797,23.458c-2.96,0.738-12.615,0.433-15.279-0.212
		c-7.939-1.835-12.863-3.578-18.857-7.183c-5.883-3.864-11.932-9.535-17.243-16.69c7.626,9.369,17.391,16.985,28.567,20.729
		c5.892,1.651,12.439,3.218,18.405,1.162c-2.914,0.765-6.04,0.323-8.502-0.055c-3.781-0.747-7.773-2.038-10.973-3.449
		c-9.11-4.242-15.897-9.986-21.586-16.672c0.369,0.323,0.728,0.627,1.06,0.885c7.192,5.8,17.815,11.462,27.285,10.392
		c-5.92,0.101-10.89-2.517-15.814-5.514c-0.618-0.406-1.236-0.821-1.853-1.254c3.882,1.909,8.004,3.384,12.338,4.288
		c7.967,1.226,16.118-0.627,23.495-3.633c-6.971,2.029-14.929,3.209-21.393,2.019c-2.287-0.498-4.26-1.107-6.132-1.807
		c0.544,0.166,1.079,0.341,1.632,0.489c12.458,2.997,26.179,0.489,36.645-6.953c-7.137,3.947-14.413,4.5-22.472,3.541
		c-2.757-0.286-7.155-1.06-12.624-3.163c-0.987-0.35-3.476-1.586-6.114-3.006c3.43,1.245,6.907,2.158,10.429,2.683
		c8.428,1.383,17.087,1.07,25.349-1.125c6.676-2.352,8.105-2.932,15.344-6.796c7.755-4.186,14.431-10.097,19.751-17.114
		c3.375-4.435,6.547-9.221,8.161-14.597c3.246-11.158,2.388-26.63-2.61-37.152c3.403,10.245,2.646,25.505-0.858,35.206
		c-1.199,4.03-5.643,10.254-8.031,13.288c-6.095,7.487-11.185,11.784-19.272,16.054c-5.671,2.914-8.336,4.177-14.514,5.754
		c-5.8,1.005-11.443,1.024-17.004,0.295c10.023,0.249,20.203-1.494,29.019-6.316c8.972-5.597,17.299-13.324,21.494-23.191
		c-5.302,9.452-15.952,17.096-24.067,21.033c-6.768,2.785-12.199,3.504-18.59,4.057c-5.616,0.286-9.968,0.212-14.505-0.572
		c2.48,0.249,4.989,0.35,7.515,0.258c10.005-0.212,23.163-4.721,28.779-13.435c-1.724,2.388-4.048,4.085-6.519,5.597
		c-4.482,2.739-9.092,4.26-14.339,5.376c-6.501,1.319-14.311,0.83-20.683-0.36c-7.331-1.641-14.329-4.869-20.019-9.304
		c-1.042-0.848-2.139-1.826-3.624-3.191c6.077,3.43,12.983,4.786,20.48,3.034c-11.674,1.199-20.12-4.684-25.939-12.117
		c3.237,2.075,6.99,3.652,11.296,4.371c-3.993-1.051-7.395-3.273-10.199-5.828c-2.392-2.392-3.586-3.934-4.477-5.932
		c2.278,2.895,5.458,5.301,9.319,6.627c-2.677-1.433-4.299-3.469-5.575-5.456c-1.132-1.921-1.528-2.579-1.97-4.364
		c-0.216-0.74-0.308-1.631-0.334-2.613c0.185-0.562,0.327-1.136,0.441-1.717c0.152,2.248,0.306,5.342,2.116,6.934
		c-1.909-2.95-0.767-6.155-0.462-9.31c0.793,1.591,1.739,3.168,3.026,4.794c-1.789-3.403-2.333-6.15-2.647-9.23
		c1.282,4.38,2.877,9.304,6.888,11.877c-2.388-2.176-3.486-7.746-3.873-10.042c0.655,2.222,1.42,4.426,2.702,6.353
		c-0.618-1.651-0.996-3.412-1.107-5.099c-0.009-1.051-0.028-2.112-0.092-3.163c1.245,1.973,2.72,3.79,4.546,5.311
		c-1.309-2.047-2.213-4.26-2.905-6.565c0.064,0.129,0.12,0.258,0.184,0.378c1.678,2.932,3.744,5.736,6.178,8.068
		c-1.217-2.351-2.259-4.924-3.08-7.589c1.005,1.826,2.056,3.587,2.997,5.072c-0.332-2.102-0.83-4.177-1.355-6.252
		c0.609,0.931,1.217,1.863,1.771,2.831c-0.129-0.618-0.286-1.236-0.461-1.835c0.369,0.341,0.747,0.682,1.134,1.014
		c1.955,1.669,3.753,2.564,5.459,4.767c-1.365-2.923-3.956-5.717-4.841-6.99c-0.055-0.074-0.111-0.157-0.166-0.23
		c0.332,0.295,0.664,0.59,0.996,0.885c1.411,1.355,2.536,2.969,3.845,4.417c1.18,1.254,2.379,2.379,3.153,3.901
		c-0.876-2.766-2.167-5.413-3.559-8.05c0.028,0.037,0.064,0.065,0.092,0.101c1.798,2.195,4.472,5.597,6.012,9.092
		c-0.258-2.6-1.051-5.127-2.047-7.552c1.042,1.226,1.955,2.517,2.61,4.103c-0.35-1.927-0.913-3.845-1.687-5.671
		c1.715,1.134,3.578,2.038,5.468,2.822c-2.065-1.448-4.002-2.978-5.717-4.924c-0.821-0.913-1.586-2.001-2.379-3.154
		c0.664,0.627,1.282,1.217,1.798,1.761c0.71,0.701,2.093,2.342,4.02,3.845c1.365,1.097,2.951,1.844,4.509,2.628
		c3.006,1.623,6.021,3.347,9.562,3.126c-2.01-0.36-3.762-0.987-5.385-2.148c-0.692-0.535-1.586-1.383-2.49-2.259
		c3.522,2.148,7.451,3.91,11.609,4.011c-3.771-1.024-7.202-3.19-10.383-5.671c-0.443-0.314-1.005-0.747-1.614-1.263
		c0.369,0.184,0.737,0.378,1.106,0.562c2.776,1.227,5.201,3.31,8.207,3.984c-2.858-1.162-4.878-3.486-7.008-5.708
		c-0.848-0.885-1.715-1.752-2.6-2.6c2.462,1.42,4.666,3.237,6.971,4.878c-1.143-1.282-2.508-2.361-3.559-3.725
		c-0.572-0.728-1.226-1.604-1.983-2.471c0.553,0.406,1.107,0.802,1.66,1.19c-0.692-0.738-1.374-1.485-2.047-2.232
		c0.793,0.415,1.586,0.83,2.361,1.272c3.384,1.927,6.805,4.205,10.816,4.426c-1.752-0.461-4.094-1.927-5.201-2.656
		c-0.314-0.286-0.618-0.563-0.931-0.848c3.209,1.715,6.787,2.923,10.982,3.255c-3.301-0.941-6.197-2.951-9.046-4.979
		c2.37,1.051,4.693,2.241,7.183,2.997c-2.508-1.614-5.855-3.753-8.133-5.367c1.844,0.876,3.799,1.485,5.606,2.453
		c-1.89-1.466-3.735-3.006-5.441-4.684c-0.138-0.157-0.277-0.314-0.415-0.47c0.258,0.111,0.507,0.212,0.765,0.313
		c2.425,0.848,4.804,1.863,7.294,2.499c1.872,0.507,3.808,0.258,5.717,0.434c1.54,0.157,3.781,0.71,5.33,1.641
		c-1.475-1.328-3.799-2.167-5.33-2.72c-0.359-0.157-2.527-1.144-2.6-1.144c-0.028-0.009-0.065-0.028-0.092-0.046
		c0.701,0.055,1.429,0.101,2.277,0.203c2.434,0.313,7.285,2.49,10.484,3.568c-3.034-1.77-6.077-3.559-9.24-5.09
		c-0.249-0.102-0.507-0.212-0.774-0.323c1.89,0.47,5.108,1.669,7.073,2.112c-2.121-0.895-3.993-2.296-6.086-3.264
		c-1.485-0.655-2.287-0.867-3.901-2.001c-0.867-0.59-1.383-0.95-1.844-1.291c2.407,1.116,5.108,2.416,8.529,2.785
		c-2.342-0.71-4.113-2.25-5.911-3.845c3.661,1.604,11.287,3.744,16.579,3.864c-1.494-0.295-3.329-0.784-4.518-1.273
		c-1.503-0.673-2.914-1.54-4.306-2.444c3.873,1.485,9.396,3.808,14.91,2.923c-2.296-0.074-4.463-0.867-6.602-1.697
		c-2.324-0.867-4.767-2.065-7.156-3.32c1.06,0.341,2.139,0.646,3.227,0.913c2.637,0.941,5.422,2.158,8.271,1.586
		c-3.882,0-7.312-2.831-9.839-4.73c-0.839-0.673-2.61-1.927-4.426-3.191c2.029,0.793,4.094,1.466,6.261,1.798
		c3.218,0.47,4.933,0.323,8.022,0.452c1.946,0.138,3.836,0.599,5.966,0.544c-2.241-0.304-5.321-1.531-6.851-2.065
		c-0.996-0.387-1.909-0.719-2.776-1.042c0.646,0.111,1.291,0.203,1.936,0.277c4.398,0.719,7.312,1.411,11.775,1.346
		c-3.467-0.664-5.256-1.752-8.225-3.071c-0.406-0.203-0.931-0.443-1.503-0.692c0.378,0.074,0.765,0.157,1.143,0.24
		c1.678,0.479,3.264,1.448,5.053,1.438c-1.171-0.249-2.176-0.904-3.181-1.512c-1.042-0.618-2.112-1.199-3.181-1.771
		c3.273,0.24,7.128,0.23,10.872,0.507c2.914,0.111,6.482,1.429,9.866,1.641c-3.67-0.756-7.026-2.646-10.678-3.532
		c-3.025-0.646-5.625-1.273-7.976-1.937c1.356,0.249,2.711,0.498,4.057,0.775c8.032,1.466,15.427,3.984,23.505,3.476
		c-7.045-1.263-12.329-4.343-18.599-6.63c3.836,0.765,8.142,1.964,11.619,3.698c-3.928-2.84-10.318-5.026-13.905-6.492
		c-0.572-0.249-1.144-0.48-1.706-0.729c-0.009-0.009-0.129-0.055-0.221-0.092c-0.009-0.009-0.018-0.009-0.028-0.019
		c-0.009,0-0.018-0.009-0.037-0.009c0,0-0.009,0-0.009-0.009c-1.558-0.802-4.804-1.964-7.561-2.979
		c6.925,1.273,13.573,1.706,21.439,2.01c5.865-0.083,11.775-1.457,17.603-0.184c-7.192-2.241-13.758-2.25-21.245-3.08
		c4.269-0.055,8.548-0.387,12.808,0.018c7.746,0.867,16.165,1.641,23.228-2.324c-7.128,2.056-13.435,0.646-20.443-0.811
		c-2.582-0.498-5.191-0.738-7.81-0.885c1.771-0.083,3.541-0.129,5.311-0.083c4.472,0.055,8.963,1.503,13.417,0.692
		c-3.947,0.221-7.699-1.531-11.535-2.222c-4.325-0.987-8.779-0.655-13.168-0.931c-0.775,0.018-1.881-0.12-3.2-0.36
		c3.532-0.277,7.026-0.987,10.364-2.25c3.809-1.097,12.762-7.488,19.18-10.918c3.725-2.25,7.755-4.103,11.084-6.925
		c2.997-3.108,5.486-6.842,7.054-10.863c-0.876,1.724-2.195,3.117-3.55,4.5c-1.872,1.798-2.942,2.665-5.164,3.928
		c-0.701,0.369-2.388,0.922-4.398,1.568C409.784,209.077,414.948,203.922,417.779,194.885z M181.083,360.551
		c-6.584-0.286-14.883-2.905-20.849-5.699c-6.713-3.107-11.702-8.068-15.906-13.878c9.986,9.083,22.204,15.611,35.307,18.885
		c1.079,0.277,2.167,0.507,3.255,0.719C182.291,360.579,181.691,360.57,181.083,360.551z M218.096,366.425
		c-2.001,1.927-10.291,7.248-12.467,8.078c-4.694,1.844-8.364,2.444-11.923,2.6c-2.978-0.065-4.998-0.23-7.248-0.682
		c11.204-1.051,21.983-4.749,31.822-10.152C218.216,366.314,218.151,366.37,218.096,366.425z M239.886,326.553
		c-0.323,0.544-0.627,1.079-0.894,1.42c-0.618,0.738-1.512,1.245-1.973,2.102c-0.074,0.157-0.12,0.258-0.148,0.36
		c-0.194,0.12-0.378,0.249-0.563,0.369c-0.009-0.074,0.009-0.138-0.009-0.212c-0.009-0.055-0.009-0.083-0.009-0.083
		c-0.074-0.498-0.221-0.885-0.36-1.079c-0.037-0.065-0.221-0.443-0.157-0.295c-0.009-0.009-0.009-0.028-0.018-0.037
		c0-0.018,0-0.018-0.009-0.028c0,0,0,0,0-0.009c0.055-0.203,0.249-0.406,0.526-0.775c0.35-0.452,0.535-1.097,0.784-1.439
		c0.406-0.378,1.162-0.784,1.688-1.282c0.221-0.221,0.516-0.563,0.71-0.765c0.028,0,0.055,0,0.083-0.009
		c0.074,0.341,0.157,0.821,0.36,1.162C239.886,326.157,239.886,326.35,239.886,326.553z M292.87,375.628
		c4.463,2.388,9.249,4.094,14.191,5.118c-7.229-0.977-15.049-4.011-21.125-9.203C288.14,373.073,290.491,374.401,292.87,375.628z
		 M304.286,383.023c3.135,1.116,6.63,1.365,9.931,1.392c0.083,0,0.166-0.009,0.249-0.009c1.595,0.129,3.181,0.184,4.777,0.221
		c-5.404,0.775-13.02,0.987-18.839-1.134c-5.966-2.112-12.181-6.067-16.801-10.964C289.403,377.804,296.577,381.548,304.286,383.023
		z"/>
</g>
</svg>
